<?xml version="1.0" encoding="utf-8"?>
<svg version="1.1" id="Layer_1" xmlns="http://www.w3.org/2000/svg" xmlns:xlink="http://www.w3.org/1999/xlink" x="0px" y="0px"
	 viewBox="0 0 32 32" style="enable-background:new 0 0 32 32;" xml:space="preserve">
<style type="text/css">
	.st0{fill:#FFFFFF;}
</style>
<g>
	<g>
		<rect x="11.3" y="19.5" class="st0" width="9.5" height="2.4"/>
		<path class="st0" d="M23.9,12.5c0,0.7-0.2,1.2-0.7,1.7c-0.5,0.5-1,0.7-1.7,0.7c-0.7,0-1.2-0.2-1.7-0.7c-0.5-0.5-0.7-1-0.7-1.7
			c0-0.6,0.2-1.2,0.7-1.7c0.5-0.5,1-0.7,1.7-0.7c0.7,0,1.2,0.2,1.7,0.7C23.7,11.2,23.9,11.8,23.9,12.5z"/>
		<path class="st0" d="M12.9,12.5c0,0.7-0.2,1.2-0.7,1.7c-0.5,0.5-1,0.7-1.7,0.7c-0.7,0-1.2-0.2-1.7-0.7c-0.5-0.5-0.7-1-0.7-1.7
			c0-0.6,0.2-1.2,0.7-1.7c0.5-0.5,1-0.7,1.7-0.7c0.7,0,1.2,0.2,1.7,0.7C12.6,11.2,12.9,11.8,12.9,12.5z"/>
	</g>
	<path class="st0" d="M29.8,10.2C29,8.3,28,6.7,26.6,5.4C25.3,4,23.7,3,21.9,2.2C20,1.4,18.1,1,16,1c-2.1,0-4,0.4-5.8,1.2
		C8.3,3,6.7,4,5.4,5.4C4,6.7,3,8.3,2.2,10.2C1.4,12,1,13.9,1,16c0,2.1,0.4,4,1.2,5.8C3,23.7,4,25.3,5.4,26.6
		c1.3,1.4,2.9,2.4,4.8,3.2C12,30.6,13.9,31,16,31c2.1,0,4-0.4,5.9-1.2c1.8-0.8,3.4-1.9,4.8-3.2c1.4-1.3,2.4-2.9,3.2-4.8
		C30.6,20,31,18.1,31,16C31,13.9,30.6,12,29.8,10.2z M24.5,24.5C22.2,26.8,19.4,28,16,28c-3.3,0-6.2-1.2-8.5-3.5
		C5.2,22.2,4,19.3,4,16s1.2-6.2,3.5-8.5C9.8,5.2,12.7,4,16,4c3.4,0,6.2,1.2,8.5,3.5C26.8,9.8,28,12.7,28,16S26.8,22.2,24.5,24.5z"/>
</g>
</svg>