<svg id="Layer_1" data-name="Layer 1" xmlns="http://www.w3.org/2000/svg" viewBox="0 0 69.68 57"><defs><style>.cls-1{fill:#fff;}</style></defs><g transform="translate(34.84, 28.5) scale(0.85) translate(-34.84, -28.5)"><path class="cls-1" d="M54.22,23.2l-5.54-11c-1.93-3.84-5.85-3.84-7.78,0l-5.54,11c-1.55,3.08-4.49,3.8-6.64,1.63L17.52,13.49C14.08,10,9.44,14.16,10,20.23l3.68,39.92c.47,5.16,4.47,7.81,7.43,4.95l21-20.28a3.62,3.62,0,0,1,5.32,0l21,20.28c3,2.86,7,.21,7.44-4.95l3.68-39.92c.56-6.07-4.08-10.22-7.53-6.74L60.86,24.83C58.71,27,55.77,26.28,54.22,23.2Z" transform="translate(-9.95 -9.27)"/></g></svg>